<?xml version="1.0" encoding="UTF-8"?>
<svg xmlns="http://www.w3.org/2000/svg" version="1.1" viewBox="0 0 1238.57 1080">
  <defs>
    <style>
      .cls-1 {
        fill: #fff;
      }

      .cls-2 {
        fill: #e78001;
      }

      .cls-2, .cls-3 {
        fill-rule: evenodd;
        stroke: #231f20;
        stroke-miterlimit: 10;
      }

      .cls-3 {
        fill: #c3b19e;
      }
    </style>
  </defs>
  <!-- Generator: Adobe Illustrator 28.7.1, SVG Export Plug-In . SVG Version: 1.2.0 Build 142)  -->
  <g>
    <g id="Layer_2">
      <rect class="cls-1" x="-1.43" width="1240" height="1080.87"/>
    </g>
    <g id="Layer_1">
      <g>
        <polygon class="cls-3" points="688.92 99.2 688.65 88.76 690.11 17.61 726.33 17.26 730.71 21.08 735.49 23.94 735.11 30.84 747.42 35.22 748.42 41.77 753.88 46.52 755.06 51.36 763.23 53.3 762.23 56.6 763.86 58.05 764.2 63.86 769.03 65.02 770.81 68.37 773.17 68.32 778.17 72.76 771.43 87.26 769.26 100.82 688.92 99.2"/>
        <polygon class="cls-3" points="688.65 88.76 618.43 89.01 617.59 78.89 616.65 19.65 646.44 19.53 690.11 17.61 688.65 88.76"/>
        <polygon class="cls-3" points="617.59 78.89 558.46 79.91 557.55 68.74 558.04 67.56 560.64 68.43 561.48 64.8 554.81 57.41 555.17 49.04 558.93 46.47 558 41.21 559.88 39.56 554.01 37.21 558.58 32.93 557.42 27.13 552.74 25.07 553.6 21.96 566.23 21.54 616.65 19.65 617.59 78.89"/>
        <polygon class="cls-3" points="558.46 79.91 528.14 80.21 528.65 70.68 440.71 71.02 437.94 68.7 438.14 24.11 485.8 23.2 553.6 21.96 552.74 25.07 557.42 27.13 558.58 32.93 554.01 37.21 559.88 39.56 558 41.21 558.93 46.47 555.17 49.04 554.81 57.41 561.48 64.8 560.64 68.43 558.04 67.56 557.55 68.74 558.46 79.91"/>
        <polygon class="cls-3" points="116.48 97.19 52.92 97.38 44.36 87.24 35.28 87.39 35.51 84.31 40.4 82.2 40.7 78.69 37.52 75.82 37.05 67.07 26.69 46.33 28.53 40.06 33.3 35.82 32.43 29.19 30.17 27.53 28.1 28.62 27.28 37.27 19.32 35.35 14.65 31.3 13.93 22.11 82.05 23.21 111.27 23.78 111.35 48.07 117.16 48.36 116.48 97.19"/>
        <polygon class="cls-3" points="139.13 128.05 134.62 116.71 136.34 104.37 134.48 98.14 116.48 97.19 117.16 48.36 111.35 48.07 111.27 23.78 163.79 24.87 213.47 25.22 213.48 48.86 217.24 49.09 217.44 68.45 219.05 68.47 217.01 129.1 139.13 128.05"/>
        <polygon class="cls-3" points="437.94 68.7 437.45 98.1 367.33 98.11 367.11 50.86 364.75 50.75 364.52 24.58 404.05 24.03 438.14 24.11 437.94 68.7"/>
        <polygon class="cls-3" points="287.22 69.32 287.62 49.61 284.29 49.35 284.52 26.33 323.51 25.62 364.52 24.58 364.75 50.75 367.11 50.86 367.33 98.11 366.78 128.3 287.13 127.08 287.22 69.32"/>
        <polygon class="cls-3" points="284.52 26.33 284.29 49.35 287.62 49.61 287.22 69.32 219.05 68.47 217.44 68.45 217.24 49.09 213.48 48.86 213.47 25.22 240.84 25.57 284.52 26.33"/>
        <polygon class="cls-3" points="217.13 149 217.01 129.1 219.05 68.47 287.22 69.32 287.13 127.08 286.59 150.17 217.13 149"/>
        <polygon class="cls-3" points="529.49 150.78 438.07 151.91 437.45 98.1 437.94 68.7 440.71 71.02 528.65 70.68 528.14 80.21 528.18 149.99 529.49 150.78"/>
        <polygon class="cls-3" points="618.47 149.8 529.49 150.78 528.18 149.99 528.14 80.21 558.46 79.91 617.59 78.89 618.43 89.01 618.47 149.8"/>
        <polygon class="cls-3" points="629.5 170.28 619.19 169.96 618.47 149.8 618.43 89.01 688.65 88.76 688.92 99.2 687.6 170.38 629.5 170.28"/>
        <polygon class="cls-3" points="139.13 128.05 137.21 142.29 146.18 149.98 145.55 157.39 147.62 161.79 148.72 171.4 147 174.87 155.94 182.13 145.89 183.02 143.82 187.45 138.55 190.06 131.92 189.29 123.1 180.46 115.42 179.97 113.01 173.49 107.1 172.58 95.12 159.31 88.68 153.39 84.05 152.51 80.64 149.03 76.53 148.02 78.29 140.54 81.7 137.06 80.23 132.41 74.98 128.62 68.18 118.81 67.17 109.69 65.37 106.53 52.92 97.38 116.48 97.19 134.48 98.14 136.34 104.37 134.62 116.71 139.13 128.05"/>
        <polygon class="cls-3" points="438.07 151.91 438.39 167.56 367.7 169.4 366.78 128.3 367.33 98.11 437.45 98.1 438.07 151.91"/>
        <polygon class="cls-3" points="707.46 170.83 687.6 170.38 688.92 99.2 769.26 100.82 767.91 112.65 766.22 127.96 768.36 143.7 771.33 157.83 778.41 171.65 707.46 170.83"/>
        <polygon class="cls-3" points="286.59 150.17 287.13 127.08 366.78 128.3 367.7 169.4 367.83 209.59 288.8 208.88 289.48 150.45 286.59 150.17"/>
        <polygon class="cls-3" points="169.47 201.42 167.74 198.9 163.22 197.79 160.98 194.03 160.67 183.23 155.94 182.13 147 174.87 148.72 171.4 147.62 161.79 145.55 157.39 146.18 149.98 137.21 142.29 139.13 128.05 217.01 129.1 217.13 149 217.49 202.26 169.47 201.42"/>
        <polygon class="cls-3" points="288.8 208.88 288.47 219.17 217.67 219.23 217.49 202.26 217.13 149 286.59 150.17 289.48 150.45 288.8 208.88"/>
        <polygon class="cls-3" points="528.67 228.65 529.49 150.78 618.47 149.8 619.19 169.96 629.5 170.28 627.41 249.53 556.16 249.46 558.47 230.35 528.67 228.65"/>
        <polygon class="cls-3" points="529.49 150.78 528.67 228.65 455.37 227.6 437.47 227.48 438.39 167.56 438.07 151.91 529.49 150.78"/>
        <polygon class="cls-3" points="452.81 248.2 368.14 249.14 367.83 209.59 367.7 169.4 438.39 167.56 437.47 227.48 455.37 227.6 453.04 230.31 452.28 234.94 453.76 237.71 451.92 239.25 455.57 243.28 456.12 246.4 452.81 248.2"/>
        <polygon class="cls-3" points="629.5 170.28 687.6 170.38 707.46 170.83 707.01 237.47 647.55 236.94 646.86 249.7 627.41 249.53 629.5 170.28"/>
        <polygon class="cls-3" points="707.01 237.47 707.46 170.83 778.41 171.65 781.39 177.26 780.74 181.89 777.75 185.73 778.07 190.86 790.01 204.56 791.48 214.37 792.59 222.83 801.34 231.76 729.82 231.7 729.65 237.87 707.01 237.47"/>
        <polygon class="cls-3" points="217.93 266.71 131.69 267.04 130.46 260.63 140.26 254.62 139.83 245.66 144.74 237.31 153.54 231.99 156.51 221.13 158.04 220.1 161.98 222.29 166.44 222.35 171.36 219.46 172.54 216.04 171.5 214.52 163.58 215.18 161.23 211.12 161.55 209.42 167.56 206.88 169.47 201.42 217.49 202.26 217.67 219.23 217.93 266.71"/>
        <polygon class="cls-3" points="368.17 268.26 288.2 268.45 288.47 219.17 288.8 208.88 367.83 209.59 368.14 249.14 368.17 268.26"/>
        <polygon class="cls-3" points="287.86 284.85 218.64 285.47 217.93 266.71 217.67 219.23 288.47 219.17 288.2 268.45 287.86 284.85"/>
        <polygon class="cls-3" points="556.16 249.46 554.28 314.9 540.01 310.28 528.38 338.45 526.83 336.32 517.92 337.26 514.79 329.27 509.9 325.08 508.93 318.77 492.7 315.51 485.45 302.35 482.16 301.64 479.95 293.7 473.47 292.38 469.24 289.52 464.66 290.95 463.83 288.59 460.02 288.32 462.13 285.73 462.16 281.04 458.12 283.18 453.04 282.75 455.15 280.06 453.85 276.56 455.33 274 451.47 264.66 456.42 264.46 455.12 263.47 455.12 255.53 452.81 248.2 456.12 246.4 455.57 243.28 451.92 239.25 453.76 237.71 452.28 234.94 453.04 230.31 455.37 227.6 528.67 228.65 558.47 230.35 556.16 249.46"/>
        <polygon class="cls-3" points="778.96 315.63 731.35 314.27 729.49 311.29 731.01 250.59 729.74 250.51 729.65 237.87 729.82 231.7 801.34 231.76 821.59 251.56 775.15 284.48 778.96 315.63"/>
        <polygon class="cls-3" points="729.65 237.87 729.74 250.51 731.01 250.59 729.49 311.29 624.98 309.66 627.41 249.53 646.86 249.7 647.55 236.94 707.01 237.47 729.65 237.87"/>
        <polygon class="cls-3" points="417.23 324.09 414.52 327.12 415.66 336.53 412.72 339.15 402.59 338.54 398.22 334.67 390.01 332.21 386.97 332.55 384.6 336.09 377.02 340.68 367.72 342.02 368.17 268.26 368.14 249.14 452.81 248.2 455.12 255.53 455.12 263.47 456.42 264.46 451.47 264.66 455.33 274 453.85 276.56 455.15 280.06 453.04 282.75 458.12 283.18 462.16 281.04 462.13 285.73 460.02 288.32 463.83 288.59 464.66 290.95 469.24 289.52 473.47 292.38 479.95 293.7 482.16 301.64 477.95 301.8 473.3 296.14 469.29 296.09 468.26 304.77 463.63 312.76 461.04 313.9 457.06 311.98 450.89 318.05 442.13 320.27 441.35 321.86 444.1 329.97 442.23 333.06 436.6 336.71 431.45 336.82 429.6 335.44 430.49 328.95 424.47 328.37 420.69 323.74 417.23 324.09"/>
        <polygon class="cls-3" points="554.28 314.9 556.16 249.46 627.41 249.53 624.98 309.66 624.5 332.14 603.99 331.92 554.28 314.9"/>
        <polygon class="cls-3" points="783.67 355.43 778.96 315.63 775.15 284.48 821.59 251.56 829.92 262.48 840.99 267.93 846.16 280.56 851.13 287.36 866.78 297.43 884.01 308.94 896.6 321.25 903.91 332.48 904.92 337.77 824.51 337.33 823.38 356.44 810.67 356.36 783.67 355.43"/>
        <polygon class="cls-3" points="186.9 344.16 181.45 340.93 179.21 329.29 170.78 323.73 166.08 315.24 165.43 311.32 167.74 302.02 162.88 301.88 157.09 294.95 152.19 288.51 142.58 283.11 141.32 277.97 131.69 267.04 217.93 266.71 218.64 285.47 218.29 354.51 212.32 352.96 207.17 349.19 197.43 350.03 186.9 344.16"/>
        <polygon class="cls-3" points="367.72 342.02 350.83 340.6 341.99 347.24 338.04 348.15 334.44 354.24 329.9 356.11 325.58 353.71 329.92 345.62 327.56 342.3 318.49 346.15 320.12 353.76 318.75 355.8 313.81 358.01 306.8 356.58 300.3 348.38 293.6 346.93 295.88 341.94 292.42 340.03 288.1 342.01 287.86 284.85 288.2 268.45 368.17 268.26 367.72 342.02"/>
        <polygon class="cls-3" points="288.1 342.01 282.02 336.28 273.77 335.44 261.24 351.45 256.07 345.27 253.19 344.48 253.83 352.56 246.57 360.41 240.77 356.14 235.32 354.55 224.66 361.55 219.09 363.41 220.31 356.9 218.29 354.51 218.64 285.47 287.86 284.85 288.1 342.01"/>
        <polygon class="cls-3" points="414.8 402.64 417.23 324.09 420.69 323.74 424.47 328.37 430.49 328.95 429.6 335.44 431.45 336.82 436.6 336.71 442.23 333.06 444.1 329.97 441.35 321.86 442.13 320.27 450.89 318.05 457.06 311.98 461.04 313.9 463.63 312.76 468.26 304.77 469.29 296.09 473.3 296.14 477.95 301.8 482.16 301.64 485.45 302.35 492.7 315.51 508.93 318.77 509.9 325.08 514.79 329.27 517.92 337.26 526.83 336.32 528.38 338.45 527.97 341.79 518.54 351.26 516.98 357.65 512.66 362.79 512.48 366.53 518.75 368.79 514.5 375.79 494.23 394.66 493.78 405.02 414.8 402.64"/>
        <polygon class="cls-3" points="624.5 332.14 624.98 309.66 729.49 311.29 731.35 314.27 778.96 315.63 783.67 355.43 744.6 355.21 743.69 374.83 660.79 373.88 662.09 333.78 624.5 332.14"/>
        <polygon class="cls-3" points="603.99 331.92 580.49 388.68 580.4 396.44 553.62 393.7 538.58 395.15 529.42 393.91 524.07 387.99 518.54 385.9 514.5 375.79 518.75 368.79 512.48 366.53 512.66 362.79 516.98 357.65 518.54 351.26 527.97 341.79 528.38 338.45 540.01 310.28 554.28 314.9 603.99 331.92"/>
        <polygon class="cls-3" points="414.4 405.56 354.93 404 354.61 410.74 305.39 409 306.8 356.58 313.81 358.01 318.75 355.8 320.12 353.76 318.49 346.15 327.56 342.3 329.92 345.62 325.58 353.71 329.9 356.11 334.44 354.24 338.04 348.15 341.99 347.24 350.83 340.6 367.72 342.02 377.02 340.68 384.6 336.09 386.97 332.55 390.01 332.21 398.22 334.67 402.59 338.54 412.72 339.15 415.66 336.53 414.52 327.12 417.23 324.09 414.8 402.64 414.4 405.56"/>
        <polygon class="cls-3" points="610.67 449.35 608.09 443.76 611.12 436.85 610.97 432.11 603.99 429.32 596.59 420.14 592.11 407.88 580.4 396.44 580.49 388.68 603.99 331.92 624.5 332.14 662.09 333.78 660.79 373.88 656.31 375.04 653.08 405.46 650.46 412.57 652.53 415.51 651.68 418.63 655.17 431.24 647.42 448.9 641.81 453.81 640.8 458.37 645.29 461.96 646.37 466.98 641.7 471.54 633.48 468.68 628.9 465.21 617.67 463.27 618.73 453.55 610.67 449.35"/>
        <polygon class="cls-3" points="218.32 426.34 218.89 378.98 219.09 363.41 224.66 361.55 235.32 354.55 240.77 356.14 246.57 360.41 253.83 352.56 253.19 344.48 256.07 345.27 261.24 351.45 273.77 335.44 282.02 336.28 288.1 342.01 292.42 340.03 295.88 341.94 293.6 346.93 300.3 348.38 306.8 356.58 305.39 409 304.43 427.77 218.32 426.34"/>
        <polygon class="cls-3" points="864.35 418.51 836.93 417.82 836.61 405.31 822.05 404.43 822.32 390.76 809.94 390.06 810.67 356.36 823.38 356.44 824.51 337.33 904.92 337.77 907.43 344.38 907.69 356.21 912.35 367.76 909.3 375.88 909.57 380.54 916.16 403.95 911.66 404.63 911.39 407.84 908.87 407.56 909.33 410.03 904.59 408.03 904.97 404.92 895.05 407.01 892.05 409.43 890.58 416.69 878.72 414.17 868.27 414.84 864.89 413.03 864.35 418.51"/>
        <polygon class="cls-3" points="782.35 454.54 770.18 456.64 758.2 462.36 752.44 461.45 741.9 456.52 743.69 374.83 744.6 355.21 783.67 355.43 810.67 356.36 809.94 390.06 808.82 424.82 783.49 423.76 782.35 454.54"/>
        <polygon class="cls-3" points="641.7 471.54 646.37 466.98 645.29 461.96 640.8 458.37 641.81 453.81 647.42 448.9 655.17 431.24 651.68 418.63 652.53 415.51 650.46 412.57 653.08 405.46 656.31 375.04 660.79 373.88 743.69 374.83 741.9 456.52 741.9 456.74 726.44 456.16 722.96 459.33 715.62 462.19 706.15 463.14 688.67 480.88 683.29 482.46 674.69 488.14 662.52 488.88 650.41 484.38 645.49 479.88 641.7 471.54"/>
        <polygon class="cls-3" points="493.78 405.02 494.23 394.66 514.5 375.79 518.54 385.9 524.07 387.99 529.42 393.91 538.58 395.15 553.62 393.7 580.4 396.44 592.11 407.88 570.72 460.51 531.48 460.49 492.15 458.39 493.78 405.02"/>
        <polygon class="cls-3" points="863.1 492.45 855.13 488.67 846.84 478.71 841.82 478.08 832.38 480.19 821.28 477.6 817.68 474.58 813.69 467.34 805.11 460.18 798.37 457.01 791.18 457.77 782.35 454.54 783.49 423.76 808.82 424.82 809.94 390.06 822.32 390.76 822.05 404.43 836.61 405.31 836.93 417.82 864.35 418.51 863.1 492.45"/>
        <polygon class="cls-3" points="903.98 472.42 895.81 485.4 892.56 483.8 888.92 484.36 873.12 493.74 863.1 492.45 864.35 418.51 864.89 413.03 868.27 414.84 878.72 414.17 890.58 416.69 892.05 409.43 895.05 407.01 904.97 404.92 904.59 408.03 909.33 410.03 908.87 407.56 911.39 407.84 911.66 404.63 916.16 403.95 923.53 416.37 933.59 418.53 940.65 413.91 951.38 398.49 961.42 397.77 977.94 406.31 985.16 406.36 991.36 408.68 1011.02 422.7 1014.5 427.84 1012.98 434.67 1010.65 429.62 999.15 429.08 988.43 422.04 983.56 415.36 978.22 414.38 974.69 416.99 970.81 427.25 963.19 428.97 957.85 427.68 954.51 428.74 947.77 444.09 940.03 452.21 937.61 459.35 927.93 461.63 921.33 459.13 914.17 462.51 912.66 466.96 903.98 472.42"/>
        <polygon class="cls-3" points="490.73 495.32 455.36 493.9 454.81 501.02 412.69 499.95 412.38 490.29 414.4 405.56 414.8 402.64 493.78 405.02 492.15 458.39 490.73 495.32"/>
        <polygon class="cls-3" points="412.38 490.29 314.38 487.97 304.98 487.59 305.49 468.19 303.6 467.98 304.43 427.77 305.39 409 354.61 410.74 354.93 404 414.4 405.56 412.38 490.29"/>
        <polygon class="cls-3" points="592.87 519.8 569.85 518.89 531.25 480.59 531.48 460.49 570.72 460.51 592.11 407.88 596.59 420.14 603.99 429.32 610.97 432.11 611.12 436.85 608.09 443.76 610.67 449.35 592.87 519.8"/>
        <polygon class="cls-2" points="903.65 511.21 903.98 472.42 912.66 466.96 914.17 462.51 921.33 459.13 927.93 461.63 937.61 459.35 940.03 452.21 947.77 444.09 954.51 428.74 957.85 427.68 963.19 428.97 970.81 427.25 974.69 416.99 978.22 414.38 983.56 415.36 988.43 422.04 999.15 429.08 1010.65 429.62 1012.98 434.67 1004.23 437.82 1000.51 443.73 992.1 450.7 980.95 464.3 978.52 484.8 988.29 495.53 987.49 498.72 981.11 519.42 974.42 527.69 972.49 520.63 974.62 514.55 962.43 512.71 960.2 507.59 962.16 506.24 962.03 502.95 929.56 502.77 925.89 509.19 918.06 507.12 916.09 515.98 913.38 515.81 912.38 510.69 903.65 511.21"/>
        <polygon class="cls-3" points="217.22 509.44 218.2 449.08 218.32 426.34 304.43 427.77 303.6 467.98 305.49 468.19 304.98 487.59 314.38 487.97 314.1 516.28 308.66 513.76 305.93 515.23 302.63 513.85 296.11 516.74 290.36 516.29 284.8 515.33 283.63 512.82 278.02 513.1 270.3 510.81 217.22 509.44"/>
        <polygon class="cls-2" points="988.29 495.53 978.52 484.8 980.95 464.3 992.1 450.7 1000.51 443.73 1004.23 437.82 1012.98 434.67 1010.6 438.09 1005.61 440.91 999.74 452.09 998.73 457.46 1002.04 466.91 1002.01 477.93 991.88 488.71 988.29 495.53"/>
        <polygon class="cls-3" points="688.67 480.88 675.5 490.9 678.38 501.32 674.41 508.62 667.37 509.73 661.21 512.77 655.2 510.16 650.94 510.28 652.37 516.82 657.94 522.31 658.58 526.71 656.17 529.75 649.03 530.88 646.53 534.03 645.89 540.71 639.54 540.48 635.35 542.65 630.61 540.53 608.26 539.86 609.12 520.74 592.87 519.8 610.67 449.35 618.73 453.55 617.67 463.27 628.9 465.21 633.48 468.68 641.7 471.54 645.49 479.88 650.41 484.38 662.52 488.88 674.69 488.14 683.29 482.46 688.67 480.88"/>
        <polygon class="cls-2" points="790.79 568.42 761.96 567.88 761.51 580.48 744.63 580.55 742.13 580.4 742.28 550.59 741.9 456.74 741.9 456.52 752.44 461.45 758.2 462.36 770.18 456.64 782.35 454.54 791.18 457.77 792.14 521.84 790.79 568.42"/>
        <polygon class="cls-2" points="645.97 550.86 645.89 540.71 646.53 534.03 649.03 530.88 656.17 529.75 658.58 526.71 657.94 522.31 652.37 516.82 650.94 510.28 655.2 510.16 661.21 512.77 667.37 509.73 674.41 508.62 678.38 501.32 675.5 490.9 688.67 480.88 706.15 463.14 715.62 462.19 722.96 459.33 726.44 456.16 741.9 456.74 742.28 550.59 645.97 550.86"/>
        <polygon class="cls-2" points="896.02 569.05 839.44 569.9 796.63 569.95 790.72 569.75 790.79 568.42 792.14 521.84 791.18 457.77 798.37 457.01 805.11 460.18 813.69 467.34 817.68 474.58 821.28 477.6 832.38 480.19 841.82 478.08 846.84 478.71 855.13 488.67 863.1 492.45 873.12 493.74 888.92 484.36 892.56 483.8 895.81 485.4 903.98 472.42 903.65 511.21 903.45 527.13 896.02 569.05"/>
        <polygon class="cls-3" points="489.19 555.78 490.73 495.32 492.15 458.39 531.48 460.49 531.25 480.59 569.85 518.89 567.78 537.75 557.82 538.08 556.6 566.21 548.12 567.01 545.82 572.31 510.77 572.2 515.76 567 515.04 564.26 512.64 564.04 509.39 565.9 505.41 573.11 502.76 574.44 500.41 572.68 500.43 570.43 504.55 566.89 500.14 559.88 493.76 555.81 489.19 555.78"/>
        <polygon class="cls-3" points="317.34 567.97 312.76 567.67 314.1 516.28 314.38 487.97 412.38 490.29 412.69 499.95 410.65 568.93 402.86 566.28 401.8 567.97 403.78 570.65 346.23 568.88 342.44 569.97 340.18 568.34 317.34 567.97"/>
        <polygon class="cls-3" points="413.43 599.73 413.77 573.92 411.16 573.52 410.65 568.93 412.69 499.95 454.81 501.02 455.36 493.9 490.73 495.32 489.19 555.78 488.76 574.24 491.78 574.74 492.8 576.85 491.8 602.37 413.43 599.73"/>
        <polygon class="cls-2" points="921.45 597.88 918.13 596.59 918.39 593.21 913.34 594.5 912.88 590.52 896.02 569.05 903.45 527.13 903.65 511.21 912.38 510.69 913.38 515.81 916.09 515.98 918.06 507.12 925.89 509.19 929.56 502.77 962.03 502.95 962.16 506.24 960.2 507.59 962.43 512.71 974.62 514.55 972.49 520.63 974.42 527.69 971.05 533.47 969.16 542.92 969.97 563.1 974.93 573.4 983.27 578.34 989.56 588.42 981.96 595.23 976.25 593.44 961.05 605.74 927.87 615.38 924.02 613.79 926.06 611.31 925.16 605.3 926.65 599.46 921.45 597.88"/>
        <polygon class="cls-3" points="217.46 603.4 217.16 527.44 217.22 509.44 270.3 510.81 278.02 513.1 283.63 512.82 284.8 515.33 290.36 516.29 296.11 516.74 302.63 513.85 305.93 515.23 308.66 513.76 314.1 516.28 312.76 567.67 317.34 567.97 315.24 607.89 311.01 608.29 307.73 604.67 305.55 606.71 302.48 603.28 299.63 604.24 297.39 603.02 291.6 607.19 289.82 604.82 285.08 609.24 281.7 610.13 282.34 604.27 217.46 603.4"/>
        <polygon class="cls-2" points="609.02 611.3 589.24 610.37 588.96 608.03 582.33 604.77 581.72 602.02 578.71 601.61 578.68 594.35 576.18 594.02 576.3 591.15 574.43 591.01 574.45 585.39 572.58 585.14 572.86 577.96 567.24 577.33 566.66 569.26 556.6 566.21 557.82 538.08 567.78 537.75 569.85 518.89 592.87 519.8 609.12 520.74 608.26 539.86 630.61 540.53 635.35 542.65 639.54 540.48 645.89 540.71 645.97 550.86 645.32 578.74 648.33 578.97 647.31 612.12 609.02 611.3"/>
        <polygon class="cls-2" points="647.31 612.12 648.33 578.97 645.32 578.74 645.97 550.86 742.28 550.59 742.13 580.4 744.63 580.55 744.34 604.27 697.67 603.84 694.09 605.26 692.39 607.86 687.91 606.54 685.09 613.46 675.17 613.31 647.31 612.12"/>
        <polygon class="cls-2" points="490.5 638.97 491.8 602.37 492.8 576.85 491.78 574.74 488.76 574.24 489.19 555.78 493.76 555.81 500.14 559.88 504.55 566.89 500.43 570.43 500.41 572.68 502.76 574.44 505.41 573.11 509.39 565.9 512.64 564.04 515.04 564.26 515.76 567 510.77 572.2 545.82 572.31 548.12 567.01 556.6 566.21 566.66 569.26 567.24 577.33 572.86 577.96 572.58 585.14 574.45 585.39 574.43 591.01 576.3 591.15 576.18 594.02 578.68 594.35 578.71 601.61 581.72 602.02 582.33 604.77 588.96 608.03 589.24 610.37 609.02 611.3 608.38 647.13 601.78 650.8 601.48 654.17 594.2 652.56 592.25 655.99 582.31 661.19 579.91 656.99 575.46 653.66 570.7 640.57 528.54 639.95 490.5 638.97"/>
        <polygon class="cls-3" points="313.77 639.42 315.24 607.89 317.34 567.97 340.18 568.34 342.44 569.97 346.23 568.88 403.78 570.65 401.8 567.97 402.86 566.28 410.65 568.93 411.16 573.52 413.77 573.92 413.43 599.73 411.33 635.27 401.19 634.98 400.53 655.51 390.92 655.1 357.72 653.61 357.97 641.05 313.77 639.42"/>
        <polygon class="cls-2" points="838.03 674.53 830 674.87 829.96 684.23 828.52 684.25 800.8 683.03 801.17 664.71 762.81 663.85 763.49 581.06 761.51 580.48 761.96 567.88 790.79 568.42 790.72 569.75 796.63 569.95 839.44 569.9 838.03 674.53"/>
        <polygon class="cls-2" points="919.51 675.5 838.03 674.53 839.44 569.9 896.02 569.05 912.88 590.52 913.34 594.5 918.39 593.21 918.13 596.59 921.45 597.88 919.51 675.5"/>
        <polygon class="cls-2" points="675.17 613.31 685.09 613.46 687.91 606.54 692.39 607.86 694.09 605.26 697.67 603.84 744.34 604.27 744.63 580.55 761.51 580.48 763.49 581.06 762.81 663.85 713.12 663.85 714.17 672.88 712.7 680.25 712.42 706.07 675.06 704.88 676.58 665.89 675.3 664.09 675.17 613.31"/>
        <polygon class="cls-3" points="1013.94 689.58 1006.16 681.9 998.6 688.77 952.54 642.96 976.99 619.07 961.05 605.74 976.25 593.44 981.96 595.23 989.56 588.42 997.8 595.92 1010.68 603.8 1013.4 608.69 1027.1 617.49 1032.61 622.87 1041.91 624.15 1038.25 635.79 1045.51 643.4 1033.2 656.61 1013.94 689.58"/>
        <polygon class="cls-3" points="1007.6 696.12 939.1 696.22 918.84 696.45 919.51 675.5 921.45 597.88 926.65 599.46 925.16 605.3 926.06 611.31 924.02 613.79 927.87 615.38 961.05 605.74 976.99 619.07 952.54 642.96 998.6 688.77 1006.16 681.9 1013.94 689.58 1007.6 696.12"/>
        <polygon class="cls-3" points="468.88 661.61 400.64 657.95 400.53 655.51 401.19 634.98 411.33 635.27 413.43 599.73 491.8 602.37 490.5 638.97 469.93 638.53 468.88 661.61"/>
        <polygon class="cls-3" points="217.17 694.52 217.12 687.91 217.57 609.12 217.46 603.4 282.34 604.27 281.7 610.13 285.08 609.24 289.82 604.82 291.6 607.19 297.39 603.02 299.63 604.24 302.48 603.28 305.55 606.71 307.73 604.67 311.01 608.29 315.24 607.89 313.77 639.42 312.42 696.23 217.17 694.52"/>
        <polygon class="cls-2" points="636.47 704.21 636.51 694.86 608.07 680.55 608.38 647.13 609.02 611.3 647.31 612.12 675.17 613.31 675.3 664.09 676.58 665.89 675.06 704.88 636.47 704.21"/>
        <polygon class="cls-3" points="1007.6 696.12 1013.94 689.58 1033.2 656.61 1045.51 643.4 1052.12 643.88 1058.09 640.29 1059.11 637.23 1060.76 637.32 1082.58 651.73 1089.19 659.86 1091.88 664.54 1093.55 673.19 1108.59 682.02 1119.2 684.55 1120.64 687.91 1119.61 694.51 1120.64 702.23 1118.59 712.09 1106.87 711.58 1103.68 706.51 1099.36 707.83 1097.92 705.71 1090.22 708.76 1089.19 706.84 1085.79 705.93 1083.84 707.36 1081.68 706.04 1074.59 708.19 1068.21 705.57 1058.34 705.51 1008.08 705.97 1007.6 696.12"/>
        <polygon class="cls-2" points="468.88 661.61 469.93 638.53 490.5 638.97 528.54 639.95 527.83 677.57 530.21 677.99 529.33 730.96 490.9 730.62 489.73 748.41 470.31 747.52 472.59 677.25 468.86 676.78 468.88 661.61"/>
        <polygon class="cls-3" points="393.2 711.69 312.24 709.46 312.42 696.23 313.77 639.42 357.97 641.05 357.72 653.61 390.92 655.1 390.49 673.56 394.44 674.1 393.2 711.69"/>
        <polygon class="cls-2" points="558.42 731.8 529.33 730.96 530.21 677.99 527.83 677.57 528.54 639.95 570.7 640.57 575.46 653.66 579.91 656.99 582.31 661.19 592.25 655.99 594.2 652.56 601.48 654.17 601.78 650.8 608.38 647.13 608.07 680.55 636.51 694.86 636.47 704.21 635.99 733.15 558.42 731.8"/>
        <polygon class="cls-3" points="392.42 745.21 393.2 711.69 394.44 674.1 390.49 673.56 390.92 655.1 400.53 655.51 400.64 657.95 468.88 661.61 468.86 676.78 472.59 677.25 470.31 747.52 392.42 745.21"/>
        <polygon class="cls-3" points="741.7 745.66 722.92 744.98 722.3 706.85 712.42 706.07 712.7 680.25 714.17 672.88 713.12 663.85 762.81 663.85 801.17 664.71 800.8 683.03 828.52 684.25 828.42 707.93 800.76 707.62 801.14 726.9 818.3 727.8 818.05 747.67 741.7 745.66"/>
        <polygon class="cls-3" points="939.1 696.22 938.39 706.49 936.44 706.61 936.23 770.16 935.41 778.77 903.07 779.15 900.81 778.88 901.66 757.42 896.73 757.18 896.85 705.36 856.54 704.83 838.09 708.07 828.42 707.93 828.52 684.25 829.96 684.23 830 674.87 838.03 674.53 919.51 675.5 918.84 696.45 939.1 696.22"/>
        <polygon class="cls-3" points="310.92 762.39 217.21 759.32 217.17 694.52 312.42 696.23 312.24 709.46 310.92 762.39"/>
        <polygon class="cls-3" points="995.21 770.22 936.23 770.16 936.44 706.61 938.39 706.49 939.1 696.22 1007.6 696.12 1008.08 705.97 1008.01 770.23 995.21 770.22"/>
        <polygon class="cls-2" points="664.55 826.72 634.62 825.94 636.52 782.86 635.07 782.4 635.99 733.15 636.47 704.21 675.06 704.88 712.42 706.07 722.3 706.85 722.92 744.98 741.7 745.66 739.53 828.8 664.55 826.72"/>
        <polygon class="cls-3" points="903.07 779.15 902.97 802.6 900.32 802.83 899.88 808.29 895.79 808.34 895.04 828.03 862.57 826.98 862.63 817.6 853.23 817.44 852.78 808.37 850.32 808.2 849.92 802.35 844.21 802.95 843.96 800.53 840.69 800.38 840.39 794.63 833.33 794.75 833.09 786.57 834.52 786.34 834.67 783.51 828.93 782.6 828.9 769.55 825.51 769.21 825.24 748.05 818.05 747.67 818.3 727.8 801.14 726.9 800.76 707.62 828.42 707.93 838.09 708.07 856.54 704.83 896.85 705.36 896.73 757.18 901.66 757.42 900.81 778.88 903.07 779.15"/>
        <polygon class="cls-3" points="1057.63 810.38 1041.49 810.45 1040.85 825.18 1035.24 825.61 1034.95 828.64 1014.24 828.86 1014.18 820.4 995.3 820.52 995.21 770.22 1008.01 770.23 1008.08 705.97 1058.34 705.51 1057.63 810.38"/>
        <polygon class="cls-3" points="1058.34 705.51 1068.21 705.57 1074.59 708.19 1081.68 706.04 1083.84 707.36 1085.79 705.93 1089.19 706.84 1090.22 708.76 1097.92 705.71 1099.36 707.83 1103.68 706.51 1106.87 711.58 1118.59 712.09 1123.92 730.04 1131.21 738.66 1135.82 748.08 1134.38 760.44 1128.53 764.07 1122.9 766.3 1120.55 771.76 1120.55 778.14 1124.85 782.68 1120.75 785.72 1106.54 787.24 1106.44 789.06 1100.51 789.37 1100.61 791.39 1095.9 792 1095.91 795.94 1089.27 796.16 1089.27 799.39 1085.59 800 1085.5 804.04 1082.84 804.25 1082.65 806.67 1077.03 807.09 1076.84 810.62 1073.98 810.73 1057.63 810.38 1058.34 705.51"/>
        <polygon class="cls-3" points="316.49 775.49 311.11 774.64 310.92 762.39 312.24 709.46 393.2 711.69 392.42 745.21 391.77 777.15 316.49 775.49"/>
        <polygon class="cls-3" points="520.89 823.64 520.77 820.41 490.59 819.38 491.74 779.63 488.86 779.23 489.73 748.41 490.9 730.62 529.33 730.96 558.42 731.8 557.22 780.76 559.99 781.07 558.8 824.35 520.89 823.64"/>
        <polygon class="cls-2" points="635.99 733.15 635.07 782.4 636.52 782.86 634.62 825.94 558.8 824.35 559.99 781.07 557.22 780.76 558.42 731.8 635.99 733.15"/>
        <polygon class="cls-3" points="391.77 777.15 392.42 745.21 470.31 747.52 489.73 748.41 488.86 779.23 491.74 779.63 490.59 819.38 394.38 817.78 395.25 777 391.77 777.15"/>
        <polygon class="cls-3" points="739.53 828.8 741.7 745.66 818.05 747.67 825.24 748.05 825.51 769.21 828.9 769.55 828.93 782.6 834.67 783.51 834.52 786.34 833.09 786.57 833.33 794.75 840.39 794.63 840.69 800.38 843.96 800.53 844.21 802.95 849.92 802.35 850.32 808.2 852.78 808.37 853.23 817.44 837.66 820.72 817.66 820.77 816.96 865.92 739.44 864.97 739.53 828.8"/>
        <polygon class="cls-3" points="216.87 826.31 217.17 766.69 217.21 759.32 310.92 762.39 311.11 774.64 316.49 775.49 315.15 827.92 216.87 826.31"/>
        <polygon class="cls-3" points="914.07 856.19 911.01 855.93 910.79 847.07 907.43 846.81 907.35 840.87 903.68 840.51 903.52 828.52 895.04 828.03 895.79 808.34 899.88 808.29 900.32 802.83 902.97 802.6 903.07 779.15 935.41 778.77 936.23 770.16 995.21 770.22 995.3 820.52 1014.18 820.4 1014.24 828.86 1007.6 828.81 1007.15 836.87 1004.6 837.09 1004.23 841.73 1001.17 842.05 1000.79 845.58 998.04 845.8 997.85 848.12 994.49 848.55 994.22 853.69 988.03 856.45 914.07 856.19"/>
        <polygon class="cls-3" points="314.84 855.17 315.15 827.92 316.49 775.49 391.77 777.15 395.25 777 394.38 817.78 393.48 841.53 393.13 856.77 314.84 855.17"/>
        <polygon class="cls-3" points="1086.98 870.34 1087.76 855.75 1083.26 847.61 1081.81 839.05 1077.31 833.62 1073.5 824.25 1073.98 810.73 1076.84 810.62 1077.03 807.09 1082.65 806.67 1082.84 804.25 1085.5 804.04 1085.59 800 1089.27 799.39 1089.27 796.16 1095.91 795.94 1095.9 792 1100.61 791.39 1100.51 789.37 1106.44 789.06 1106.54 787.24 1120.75 785.72 1124.85 782.68 1129.14 783.19 1128.63 789.76 1133.53 802.89 1136.49 809.15 1144.24 817.64 1143.72 828.73 1156.45 837.52 1149.62 837.71 1144.21 842.24 1144.21 847.17 1137.99 847.87 1137.88 850.19 1133.91 850.69 1133.7 853.7 1128 854.21 1128 859.34 1122.09 860.85 1121.79 866.48 1118.42 866.58 1118.12 868.4 1104.58 868.2 1104.48 869.91 1086.98 870.34"/>
        <polygon class="cls-3" points="988.03 856.45 994.22 853.69 994.49 848.55 997.85 848.12 998.04 845.8 1000.79 845.58 1001.17 842.05 1004.23 841.73 1004.6 837.09 1007.15 836.87 1007.6 828.81 1014.24 828.86 1034.95 828.64 1035.24 825.61 1040.85 825.18 1041.49 810.45 1057.63 810.38 1073.98 810.73 1073.5 824.25 1077.31 833.62 1081.81 839.05 1083.26 847.61 1087.76 855.75 1086.98 870.34 1085.45 870.55 1086.71 889.14 1085.47 922.57 1041.53 922.02 1007.03 921.72 1007.5 916.1 1009.11 914.68 1007.47 912.29 1006.49 903.26 997.04 888.87 998.22 883.53 995.13 878.43 995.09 873.6 988.94 867.82 990.23 863.28 988.03 856.45"/>
        <polygon class="cls-3" points="816.96 865.92 817.66 820.77 837.66 820.72 853.23 817.44 862.63 817.6 862.57 826.98 895.04 828.03 903.52 828.52 903.68 840.51 907.35 840.87 907.43 846.81 910.79 847.07 911.01 855.93 914.07 856.19 914.3 865.95 916.64 866.43 916.72 881.31 836.43 879.45 817.09 878.79 816.96 865.92"/>
        <polygon class="cls-3" points="393.48 841.53 394.38 817.78 490.59 819.38 520.77 820.41 520.89 823.64 518.81 881.54 448.13 880.47 442.11 880.11 442.31 842.73 393.48 841.53"/>
        <polygon class="cls-3" points="1189.22 885.74 1189.28 891.14 1184.7 893.13 1180.13 892.71 1176.75 900.13 1176.54 903.25 1181.79 912.5 1180.15 916.61 1176.07 921.41 1174.31 932.33 1168.73 935.12 1161.33 933.8 1154.46 923.46 1150.91 921.95 1151.02 917.04 1149.4 914.12 1145.85 911.71 1144.23 905.99 1140.98 905.68 1140.89 902.57 1139.16 902.07 1139.26 900.06 1134.69 895.13 1134.69 892.93 1132.15 892.62 1131.95 890.51 1130.53 890.31 1130.53 887.09 1128.09 886.79 1127.68 883.28 1125.85 883.38 1125.96 880.86 1124.23 880.76 1124.12 876.94 1121.38 876.84 1121.38 873.02 1118.43 873.32 1118.12 868.4 1118.42 866.58 1121.79 866.48 1122.09 860.85 1128 859.34 1128 854.21 1133.7 853.7 1133.91 850.69 1137.88 850.19 1137.99 847.87 1144.21 847.17 1144.21 842.24 1149.62 837.71 1156.45 837.52 1161.45 839.85 1165.12 837.74 1164.73 833.51 1156.68 826.13 1157.81 820.69 1161.19 819.38 1164.76 820.3 1169.43 830.39 1174.31 833.23 1177.24 842.61 1188.51 842.31 1192.53 844.68 1192.91 849.92 1188.56 869.32 1182.02 874.43 1180.79 877.54 1182.4 883.08 1189.22 885.74"/>
        <polygon class="cls-3" points="518.81 881.54 520.89 823.64 558.8 824.35 634.62 825.94 664.55 826.72 663.3 884.76 659.94 884.65 543.99 882.67 518.81 881.54"/>
        <polygon class="cls-3" points="216.69 892.13 216.92 840.34 216.87 826.31 315.15 827.92 314.84 855.17 313.43 895.3 216.69 892.13"/>
        <polygon class="cls-3" points="659.94 884.65 663.3 884.76 664.55 826.72 739.53 828.8 739.44 864.97 739.32 886.09 736.99 886.35 735.73 952.42 658.03 952.32 659.94 884.65"/>
        <polygon class="cls-3" points="398.12 952.65 400.44 879.51 392.98 878.92 393.13 856.77 393.48 841.53 442.31 842.73 442.11 880.11 448.13 880.47 445.56 952.58 398.12 952.65"/>
        <polygon class="cls-3" points="393.13 856.77 392.98 878.92 400.44 879.51 398.12 952.65 351.92 952.69 312.36 952.42 313.43 895.3 314.84 855.17 393.13 856.77"/>
        <polygon class="cls-3" points="1007.03 921.72 1003.31 926.76 1001.18 926.98 1000.66 939.11 996.23 941.94 994.82 952.02 931.6 952.42 931.73 929.82 928.78 929.55 928.76 910.29 923.37 909.75 922.73 881.64 916.72 881.31 916.64 866.43 914.3 865.95 914.07 856.19 988.03 856.45 990.23 863.28 988.94 867.82 995.09 873.6 995.13 878.43 998.22 883.53 997.04 888.87 1006.49 903.26 1007.47 912.29 1009.11 914.68 1007.5 916.1 1007.03 921.72"/>
        <polygon class="cls-3" points="735.73 952.42 736.99 886.35 739.32 886.09 739.44 864.97 816.96 865.92 817.09 878.79 836.43 879.45 833.88 953.08 784.71 952.4 777.42 952.55 735.73 952.42"/>
        <polygon class="cls-3" points="1041.53 922.02 1085.47 922.57 1086.71 889.14 1085.45 870.55 1086.98 870.34 1104.48 869.91 1104.58 868.2 1118.12 868.4 1118.43 873.32 1121.38 873.02 1121.38 876.84 1124.12 876.94 1124.23 880.76 1125.96 880.86 1125.85 883.38 1127.68 883.28 1128.09 886.79 1130.53 887.09 1130.53 890.31 1131.95 890.51 1132.15 892.62 1134.69 892.93 1134.69 895.13 1139.26 900.06 1139.16 902.07 1140.89 902.57 1140.98 905.68 1144.23 905.99 1145.85 911.71 1149.4 914.12 1151.02 917.04 1150.91 921.95 1147.15 922.64 1145.33 924.75 1137.49 948.09 1138.1 949.84 1132.12 960.05 1128.17 962.35 1124.42 958.04 1127.29 950.74 1126.25 949.38 1128.07 944.78 1126.25 939.87 1124.22 937.36 1117.63 936.16 1113.07 937.67 1110.95 941.28 1111.15 946.28 1117.13 950.84 1120.17 956.64 1115.01 963.45 1119.47 972.25 1119.58 982.2 1115.12 981.2 1109.36 977.1 1104.09 970.51 1093.77 971.92 1089.11 969.73 1087.79 966.73 1083.14 965.74 1078.78 966.75 1077.09 975.26 1040.98 974.8 1038.75 974.3 1041.22 962.39 1041.24 945.77 1043.03 937.95 1041.53 922.02"/>
        <polygon class="cls-3" points="833.88 953.08 836.43 879.45 916.72 881.31 922.73 881.64 923.37 909.75 928.76 910.29 928.78 929.55 931.73 929.82 931.6 952.42 892.19 952.8 833.88 953.08"/>
        <polygon class="cls-3" points="543.99 882.67 543.01 952.65 529.8 952.66 451.05 952.49 445.56 952.58 448.13 880.47 518.81 881.54 543.99 882.67"/>
        <polygon class="cls-3" points="588.06 952.44 543.01 952.65 543.99 882.67 659.94 884.65 658.03 952.32 654.73 952.27 588.06 952.44"/>
        <polygon class="cls-3" points="217.47 952.77 216.8 912.74 216.69 892.13 313.43 895.3 312.36 952.42 217.47 952.77"/>
        <polygon class="cls-3" points="984.36 1062.4 967.46 1062.74 978.74 1040.34 984.13 1035.01 987.86 1034.38 992.96 1030.36 993.43 1025.07 995.73 1022.56 1005.98 1017.2 1011.3 1013.87 1015.07 1003.77 1022.83 1000.62 1025.72 994.41 1022.56 988.94 1025.64 980.73 1025.31 976.33 1020.34 973.06 1013.85 971.4 1012.61 967.51 1013.78 960.6 1010.23 959.82 1007.95 952.23 994.82 952.02 996.23 941.94 1000.66 939.11 1001.18 926.98 1003.31 926.76 1007.03 921.72 1041.53 922.02 1043.03 937.95 1041.24 945.77 1041.22 962.39 1038.75 974.3 1040.98 974.8 1041.03 1061.15 984.36 1062.4"/>
        <polygon class="cls-3" points="1041.03 1061.15 1040.98 974.8 1077.09 975.26 1078.78 966.75 1083.14 965.74 1087.79 966.73 1089.11 969.73 1093.77 971.92 1104.09 970.51 1109.36 977.1 1115.12 981.2 1119.58 982.2 1115.12 984.45 1104.3 982.46 1101.28 986.86 1104.11 992.75 1115.53 998.73 1116.75 1002.33 1115.64 1003.92 1102.11 1007.53 1092.82 1004.45 1088.58 1005.06 1088.38 1007.55 1091.72 1011.94 1102.03 1020.1 1107.18 1027.07 1107.18 1031.96 1093.38 1038.65 1091.48 1042.25 1089.59 1054.79 1083.76 1060.48 1041.03 1061.15"/>
      </g>
    </g>
  </g>
</svg>